<svg xmlns="http://www.w3.org/2000/svg" width="407.601" height="407.601" viewBox="0 0 407.601 407.601" style="enable-background:new 0 0 407.601 407.601" xml:space="preserve"><path d="M325.891 57.796H81.72c-11.748 0-21.3 9.552-21.3 21.299v249.426c0 11.738 9.552 21.297 21.3 21.297h244.171c11.738 0 21.29-9.553 21.29-21.297V79.095c0-11.747-9.552-21.299-21.29-21.299zM209.46 119.061h-40.953v-12.705H124.18v104.032h44.328V173.65H140.55v-30.547h68.911v67.285c0 8.192-4.164 15.309-12.492 21.361s-17.91 9.079-28.738 9.079h-44.192c-10.923 0-20.475-3.009-28.664-9.031-8.184-6.018-12.28-13.081-12.28-21.196V106.355c0-8.115 4.152-15.223 12.425-21.312 8.287-6.088 17.886-9.132 28.812-9.132h43.905c10.829 0 20.404 3.044 28.738 9.132 8.334 6.088 12.492 13.196 12.492 21.312v12.705h-.007zM365.835 0H41.766C20.629 0 3.482 17.142 3.482 38.281v331.035c0 21.144 17.147 38.284 38.284 38.284h324.069c21.137 0 38.284-17.141 38.284-38.284V38.281C404.119 17.142 386.972 0 365.835 0zm-3.558 328.509c0 20.061-16.326 36.393-36.387 36.393H81.72c-20.064 0-36.396-16.326-36.396-36.393V79.095c0-20.058 16.325-36.389 36.396-36.389h244.171c20.055 0 36.387 16.326 36.387 36.389v249.414z"/></svg>
